<svg xmlns="http://www.w3.org/2000/svg" viewBox="0 0 64 80" x="0px" y="0px">
    <g>
        <path class='topBanana' d="M2.825,13.632v0C4.813,27.527,17.347,38,32,38S59.186,27.528,61.173,13.635l0,0,.809-4.578a1,1,0,0,0-.558-1.079l-4-1.88a1,1,0,0,0-1.321.458l-1.857,3.715c-.014.016-.032.024-.044.041-5.015,6.6-13.392,8.335-19.538,8.632-.906.045-1.8.064-2.66.058a36.512,36.512,0,0,1-9.184-1.145A24.543,24.543,0,0,1,10.464,9.931c-.333-.622-.607-1.1-.85-1.512A15.969,15.969,0,0,1,7.948,4.684a1,1,0,0,0-1.4-.579l-4,2A1,1,0,0,0,2,7a32.145,32.145,0,0,0,.735,6.124ZM32,36C18.574,36,7.059,26.6,4.911,14.023l1.579-.8C9.489,22.432,19.969,29,32,29c12.293,0,22.945-6.443,25.972-15.486l1.114.527C56.929,26.611,45.419,36,32,36ZM57.458,8.32l2.424,1.139-.445,2.516-3.057-1.5ZM22.305,19.786A38.5,38.5,0,0,0,31.993,21q1.355.008,2.769-.06c9.03-.437,16.084-3.448,20.475-8.72l.91.431C53.506,21.013,43.549,27,32,27,20.7,27,10.9,20.865,8.3,12.313l1.107-.559A26.3,26.3,0,0,0,22.305,19.786ZM6.432,6.4A16.515,16.515,0,0,0,7.886,9.425c.118.2.245.42.383.663L4.561,11.959A29.482,29.482,0,0,1,4.01,7.613Z"/>
        <path class='bottomBanana' d="M10.987,62a8.946,8.946,0,0,0,3.521-.719,8.819,8.819,0,0,0,6.992-.007,8.8,8.8,0,0,0,7,0A8.86,8.86,0,0,0,32,62c.165,0,.331,0,.424-.01C47.1,61.792,60.086,51.078,61.99,37.6a1,1,0,0,0-.538-1.032L58.6,35.123l-2.391-1.04a1,1,0,0,0-1.248.387c-3.745,6-9.76,8.927-19.5,9.5-.856.046-3.428.018-3.452.018s-.043.011-.064.013a8.849,8.849,0,0,0-3.449.724,9,9,0,0,0-7,0,9.022,9.022,0,0,0-6.991-.008A9,9,0,1,0,10.987,62Zm19.778-2.13a8.95,8.95,0,0,0,2.107-2.521,8.8,8.8,0,0,0,.862-2.2l1.559,1.559,1.414-1.414-2.735-2.735a8.866,8.866,0,0,0-1.095-3.9,8.985,8.985,0,0,0-2.122-2.537,7,7,0,1,1,1.58,13.871c-.09.007-.186.006-.282.006A8.147,8.147,0,0,1,30.765,59.87ZM56.186,36.253l1.562.679L59.9,38.023c-1.787,10.3-10.583,18.748-21.423,21.231a8.985,8.985,0,0,0-1.062-13.426C43.519,45.269,51.286,43.433,56.186,36.253ZM28.062,46.709a7.025,7.025,0,0,1,3.066,2.92,6.95,6.95,0,0,1,0,6.75,6.962,6.962,0,0,1-7.361,3.5,9.072,9.072,0,0,0,2.113-2.532,8.958,8.958,0,0,0,.851-2.2l1.567,1.562,1.414-1.414-2.744-2.735a8.953,8.953,0,0,0-1.089-3.9,9.05,9.05,0,0,0-2.112-2.531A6.981,6.981,0,0,1,28.062,46.709Zm-7,0A6.99,6.99,0,0,1,16.778,59.88a9.01,9.01,0,0,0,2.941-4.737l1.564,1.564L22.49,55.5h0l.207-.207-2.732-2.732a8.975,8.975,0,0,0-3.188-6.441A7,7,0,0,1,21.062,46.709ZM10.987,46a7,7,0,1,1-7,7A7.008,7.008,0,0,1,10.987,46Z"/>
        <polygon class='bananaStar'
                points="7.694 56.707 10.987 53.414 14.28 56.707 15.694 55.293 11.99 51.589 11.99 48 9.99 48 9.99 51.583 6.28 55.293 7.694 56.707" />
        <path class='bananaSlash' d="M54.834,45.3l-1.668-1.1a20.163,20.163,0,0,1-9.632,7.264l.6,1.909A21.86,21.86,0,0,0,54.834,45.3Z"/>
    </g>
    <text x="0" y="79" fill="#000000" font-size="5px" font-weight="bold"
          font-family="'Helvetica Neue', Helvetica, Arial-Unicode, Arial, Sans-serif">Created by monkik
    </text>
    <text x="0" y="84" fill="#000000" font-size="5px" font-weight="bold"
          font-family="'Helvetica Neue', Helvetica, Arial-Unicode, Arial, Sans-serif">from the Noun Project
    </text>
</svg>